<?xml version="1.0" encoding="utf-8"?>
<!-- Generator: Adobe Illustrator 21.1.0, SVG Export Plug-In . SVG Version: 6.00 Build 0)  -->
<svg version="1.1" id="Layer_1" xmlns="http://www.w3.org/2000/svg" xmlns:xlink="http://www.w3.org/1999/xlink" x="0px" y="0px"
	 viewBox="0 0 500 500" style="enable-background:new 0 0 500 500;" xml:space="preserve">
<style type="text/css">
	.st0{fill:url(#SVGID_1_);}
	.st1{fill:#FF7F18;}
</style>
<radialGradient id="SVGID_1_" cx="-1150.9744" cy="-538.4453" r="0.6375" gradientTransform="matrix(545.6736 0 0 542.5255 628228 292244.25)" gradientUnits="userSpaceOnUse">
	<stop  offset="0" style="stop-color:#423325;stop-opacity:0.98"/>
	<stop  offset="1" style="stop-color:#1C0A00"/>
</radialGradient>
<path class="st0" d="M20.8,21.4h457.7v457.3H20.8V21.4z"/>
<path class="st1" d="M20.8,21.4h457.7v457.3H20.8V21.4z M0,500h499.4V0H0V500z M327.1,178.3c0-1.7,0.6-2.6,2.5-2.6h32.7
	c1.7,0,2.5,0.6,2.5,2.6v168.6c0,1.7-0.4,2.6-2.5,2.6H330c-2.1,0-2.7-1-2.7-2.8V178.3H327.1L327.1,178.3z M324.8,129.7
	c0-13.7,9.4-21.8,21.2-21.8c12.7,0,21.2,8.7,21.2,21.8c0,14.1-8.9,21.8-21.6,21.8C333.6,151.6,324.8,143.9,324.8,129.7z
	 M231.2,248.5c-5.8-23.7-19.6-75.4-24.8-100.4H206c-4.4,25-15.4,67.3-24.1,100.4H231.2L231.2,248.5z M173.4,283.1L157,347.2
	c-0.4,1.7-1,2.2-3.1,2.2h-30.6c-2.1,0-2.5-0.6-2.1-3.2l59.1-212.4c1-3.8,1.7-7.3,2.1-17.8c0-1.5,0.6-2.2,1.7-2.2h43.7
	c1.5,0,2.1,0.4,2.5,2.2l66.2,230.5c0.4,1.7,0,2.8-1.7,2.8h-34.5c-1.7,0-2.7-0.4-3.1-2l-17.1-64.3L173.4,283.1L173.4,283.1z"/>
</svg>
