<?xml version="1.0" encoding="utf-8"?>
<!-- Generator: Adobe Illustrator 21.1.0, SVG Export Plug-In . SVG Version: 6.00 Build 0)  -->
<svg version="1.1" id="Layer_1" xmlns="http://www.w3.org/2000/svg" xmlns:xlink="http://www.w3.org/1999/xlink" x="0px" y="0px"
	 viewBox="0 0 383.7 196.3" style="enable-background:new 0 0 383.7 196.3;" xml:space="preserve">
<style type="text/css">
	.st0{fill:#EB7077;stroke:#EB7077;stroke-width:0.1904;}
	.st1{fill:#F6A2AD;stroke:#F6A2AD;stroke-width:0.1904;}
</style>
<g>
	<g>
		<path class="st0" d="M85-55.3c1.5-3.9,3.5-7.7,6.4-9.6c1.2-0.3,2.3-0.2,3.5-0.2h57.7c-1.7,2.2-3.3,4.4-4.4,7.3
			c-3,7.3-4.9,15.5-6.8,23.7c-5.2,24.7-8.8,50.1-12.3,75.5c-1.6,11.5-3.1,23.1-4.5,34.6c-4.4,37.7-8.9,75.3-14.6,112.6
			c-2.7,17.2-5.5,34.4-9.6,51c-1.9,6.9-3.8,14.2-7.5,19.3c-0.9,1.2-1.7,2.6-3,2.4h-51c-3.5-0.2-6.9,0.3-10.3-0.2
			c2.3-2.7,4.3-5.9,5.7-9.8c3.8-11,6.2-23,8.5-34.9c3.6-19.1,6.4-38.5,9.1-57.9c1.7-12.7,3.7-25.4,4.9-38.2
			c1.4-14.3,3.5-28.4,5.1-42.6c2.6-20.9,5.5-41.8,8.6-62.6c2.5-16.2,5-32.4,8.5-48.2C80.5-40.8,82.4-48.3,85-55.3z"/>
		<path class="st1" d="M152.6-65.1c1.5,0,3-0.1,4.4,0c3.3,2.6,6,6.8,7.5,12c2,5.9,3.7,12,5.2,18.4c5.1,23.9,8.6,48.4,12,72.9
			c3,21.9,5.8,43.9,8.4,66c0.2,1.2-0.1,2.8,1,3.1c-3.7,29-7.3,58.1-11.9,86.9c-2.5,15.5-5.1,31-8.9,45.9c-2,7.5-4.1,15.7-8.5,21
			c-2.8,0.9-4.7-2.2-6.4-5.1c-2.9-5.6-4.7-12.3-6.4-18.9c-5.8-23.8-9.3-48.6-12.8-73.3c-2.7-19.2-5.1-38.6-7.6-57.9
			c-1.1-9.8-2.6-19.5-3.5-29.3c-0.2-0.2-0.5-0.5-0.7-0.6c1.4-11.5,3-23.1,4.5-34.6c3.5-25.4,7.1-50.8,12.3-75.5
			c1.8-8.2,3.8-16.4,6.8-23.7C149.3-60.7,150.9-62.9,152.6-65.1z"/>
		<path class="st0" d="M216.3-51.7c1.8-5.3,4.1-11.3,8.1-13.3c20.2-0.2,40.5-0.1,60.7-0.1c-1.9,2.9-3.9,5.7-5.1,9.3
			c-3.9,10.7-6.2,22.5-8.6,34.1c-6,32.1-10.2,64.9-14.3,97.8c-3.7,32.4-7.7,64.7-12.2,96.9c-2.3,16.2-4.8,32.4-7.9,48.3
			c-2,9.9-4.1,19.8-7.3,29c-1.6,4.2-3.4,8.7-6.4,10.9c-19.3,0.2-38.7,0-58,0.1c-1.1,0-2.2,0-3.3-0.2c4.3-5.3,6.4-13.5,8.5-21
			c3.8-15,6.4-30.4,8.9-45.9c4.6-28.8,8.2-57.9,11.9-86.9c4.4-37.4,9.1-74.9,15-111.9C209-20.6,211.6-36.8,216.3-51.7z"/>
		<path class="st1" d="M285.1-65.1c1.6,0,3.3-0.1,4.9,0c2.6,2.1,4.5,5.6,6.2,9.3c2.8,6.6,4.5,14.1,6.3,21.5
			c4.2,19.7,7.4,39.9,10.3,60.1c3.9,27.3,7.2,54.7,10.5,82.1c0.8,6.6,1.6,13.2,2.1,19.8c0.2,0.3,0.6,0.9,0.8,1.2
			c-1.8,3.9-2.5,8.5-3.6,12.9c-3.2,15.7-5.3,31.9-7.1,48c-1.4,12.7-3.3,25.2-5.9,37.4c-1.9,9-4.3,18-8.2,25.6
			c-1.8,3.6-4.3,6.4-7.1,8.3c-4.2,0.7-6.7-5.5-8.8-10c-4.2-11.2-6.5-23.7-9-35.9c-8.1-45.2-13.3-91.4-19-137.4
			c-0.1-0.7-0.3-1.3-0.7-1.6c4-32.8,8.3-65.6,14.3-97.8c2.3-11.7,4.6-23.5,8.6-34.1C281.2-59.4,283.2-62.2,285.1-65.1z"/>
		<path class="st1" d="M-19.2,110.6c1.3-0.2,2.6-0.5,4-0.5h55.5c2.3,0.5,4.8,0.2,7,1.7c3.3,2,6.2,5.4,8.3,9.7c0.3-0.2,0.7-0.8,1-1.2
			c-1.2,12.8-3.2,25.5-4.9,38.2c-2.7,19.4-5.6,38.8-9.1,57.9c-2.3,11.9-4.7,23.9-8.5,34.9c-1.3,3.9-3.4,7.1-5.7,9.8
			c-0.9,0.2-1.5-0.7-2.2-1.4c-2.4-2.3-3.8-6.3-5.2-10c-7-24.1-7.7-50.7-12.1-75.9c-2.2-12.6-4.9-25.1-8.9-36.7
			c-2.4-6.9-5.5-13.6-9.4-18.9C-12.2,114.8-15.6,111.9-19.2,110.6z"/>
		<path class="st0" d="M330.8,118.6c3.2-5.5,8-9,12.8-8.6h41.8c5.8,0.2,11.7-0.3,17.5,0.2c-1.7,1.8-3.8,2.5-5.7,3.9
			c-6.4,4.4-11.8,11.7-15.3,20.9c-5.6,14.7-7.5,31.5-9.1,48c-1.6,16.2-1.6,33-5,48.7c-2.3,11-5.9,22.2-12.1,29.4
			c-19.2,0.3-38.3,0.1-57.4,0.2c-1.3,0-2.5,0.1-3.7-0.3c2.8-1.9,5.2-4.6,7.1-8.3c3.9-7.6,6.2-16.5,8.2-25.6
			c2.6-12.2,4.5-24.8,5.9-37.4c1.8-16.1,3.9-32.4,7.1-48c1-4.4,1.7-9,3.6-12.9C327.8,125.5,328.8,121.5,330.8,118.6z"/>
	</g>
</g>
</svg>
