<?xml version="1.0" encoding="utf-8"?>
<!-- Generator: Adobe Illustrator 21.1.0, SVG Export Plug-In . SVG Version: 6.00 Build 0)  -->
<svg version="1.1" id="Layer_1" xmlns="http://www.w3.org/2000/svg" xmlns:xlink="http://www.w3.org/1999/xlink" x="0px" y="0px"
	 viewBox="0 0 24 24" style="enable-background:new 0 0 24 24;" xml:space="preserve">
<style type="text/css">
	.st0{fill:#CC3333;}
</style>
<title>NPM icon</title>
<path class="st0" d="M0,7.3v8h6.7v1.3H12v-1.3h12v-8C24,7.3,0,7.3,0,7.3z M6.7,14H5.3v-4H4v4H1.3V8.7h5.3C6.7,8.7,6.7,14,6.7,14z
	 M10.7,14v1.3H8V8.7h5.3V14L10.7,14C10.7,14,10.7,14,10.7,14z M22.7,14h-1.3v-4H20v4h-1.3v-4h-1.3v4h-2.7V8.7h8
	C22.7,8.7,22.7,14,22.7,14z"/>
<path class="st0" d="M10.7,10H12v2.7h-1.3V10z"/>
</svg>
