<?xml version="1.0" encoding="utf-8"?>
<!-- Generator: Adobe Illustrator 21.1.0, SVG Export Plug-In . SVG Version: 6.00 Build 0)  -->
<svg version="1.1" id="Layer_1" xmlns="http://www.w3.org/2000/svg" xmlns:xlink="http://www.w3.org/1999/xlink" x="0px" y="0px"
	 viewBox="0 0 359 261" style="enable-background:new 0 0 359 261;" xml:space="preserve">
<style type="text/css">
	.st0{fill:none;stroke:#339999;stroke-width:10;stroke-miterlimit:10;}
</style>
<path class="st0" d="M18.7,123.5c1.1-64.3,29.2-88.3,52.5-97c15.4-5.8,31.1,7.9,31.1,27V118v105.3c0,15.6-10.7,28.2-24,28.2h-9.1
	c-0.1,0-0.3,0-0.4,0c-53.5,5.5-60.3-96.3-6.4-106.2c209.8-38.7,315.1-126.8,260.9-132c-27.5-2.7-50.9,2-57.5,5.5
	c-48.8,26.1-70,179.8-18.1,216.8c33.3,23.8,84.6-9.4,95.8-17"/>
<path class="st0" d="M209.3,74.8c-148.2-8-97.6,120.6,0,84.4"/>
</svg>
