<!--?xml version="1.0" encoding="utf-8"?-->
<!-- Generator: Adobe Illustrator 21.0.0, SVG Export Plug-In . SVG Version: 6.00 Build 0)  -->
<svg version="1.1" id="Layer_1" xmlns="http://www.w3.org/2000/svg" xmlns:xlink="http://www.w3.org/1999/xlink" x="0px" y="0px" viewBox="0 0 898 507" style="" xml:space="preserve">
<style type="text/css">
	.st0{fill:none;stroke:#339999;stroke-width:10;stroke-miterlimit:10;}
</style>
<path class="st0 pSsqarMx_0" d="M286.7,244.5c1.1-64.3,29.2-88.3,52.5-97c15.4-5.8,31.1,7.9,31.1,27V239v105.3c0,15.6-10.7,28.2-24,28.2h-9.1
	c-0.1,0-0.3,0-0.4,0c-53.5,5.5-60.3-96.3-6.4-106.2c209.8-38.7,315.1-126.8,260.9-132c-27.5-2.7-50.9,2-57.5,5.5
	c-48.8,26.1-70,179.8-18.1,216.8c33.3,23.8,84.6-9.4,95.8-17"></path>
<path class="st0 pSsqarMx_1" d="M477.3,195.8c-148.2-8-97.6,120.6,0,84.4"></path>
<style data-made-with="vivus-instant">.pSsqarMx_0{stroke-dasharray:1263 1265;stroke-dashoffset:1264;animation:pSsqarMx_draw 2109ms linear 0ms forwards;}.pSsqarMx_1{stroke-dasharray:233 235;stroke-dashoffset:234;animation:pSsqarMx_draw 390ms linear 2109ms forwards;}@keyframes pSsqarMx_draw{100%{stroke-dashoffset:0;}}@keyframes pSsqarMx_fade{0%{stroke-opacity:1;}94.02985074626866%{stroke-opacity:1;}100%{stroke-opacity:0;}}</style><style class="darkreader darkreader--sync" media="screen"></style></svg>
