<?xml version="1.0" encoding="utf-8"?>
<!-- Generator: Adobe Illustrator 21.1.0, SVG Export Plug-In . SVG Version: 6.00 Build 0)  -->
<svg version="1.1" id="Layer_1" xmlns="http://www.w3.org/2000/svg" xmlns:xlink="http://www.w3.org/1999/xlink" x="0px" y="0px"
	 viewBox="0 0 500 500" style="enable-background:new 0 0 500 500;" xml:space="preserve">
<style type="text/css">
	.st0{fill:url(#SVGID_1_);}
	.st1{fill:#31C5F0;}
</style>
<radialGradient id="SVGID_1_" cx="-1150.9736" cy="-538.4448" r="0.6371" gradientTransform="matrix(545.6736 0 0 542.8599 628228 292424.125)" gradientUnits="userSpaceOnUse">
	<stop  offset="0" style="stop-color:#34364E;stop-opacity:0.98"/>
	<stop  offset="1" style="stop-color:#0C0824"/>
</radialGradient>
<path class="st0" d="M21.3,21.4h457.5v457.3H21.3V21.4z"/>
<path class="st1" d="M21.3,21.4h457.5v457.3H21.3V21.4z M0.5,500h499V0H0.5V500z M337,205.2c-16.4,0-22,8.5-22,15.6
	c0,7.7,3.7,13,25.8,24.8c32.6,16.2,42.8,31.9,42.8,54.7c0,34.2-25.4,52.6-59.7,52.6c-18.1,0-33.7-3.8-42.6-9.1
	c-1.5-0.6-1.7-1.7-1.7-3.4v-31.5c0-2.2,1-2.8,2.5-1.7c13.1,8.7,28.1,12.6,41.8,12.6c16.4,0,23.3-7.1,23.3-16.6
	c0-7.7-4.8-14.5-25.8-25.7c-29.5-14.5-41.8-29.2-41.8-53.8c0-27.5,21-50.5,57.4-50.5c17.9,0,30.4,2.8,37.2,6c1.7,1,2.1,2.8,2.1,4.3
	v29.3c0,1.7-1,2.8-3.1,2.2C364,208.8,350.5,205.2,337,205.2L337,205.2z M158.2,230.6c4.8,0.4,8.5,0.4,16.8,0.4
	c24.3,0,47.2-8.7,47.2-42.7c0-27.1-16.4-40.8-44.1-40.8c-8.3,0-16.2,0.4-20,0.6L158.2,230.6L158.2,230.6z M121.1,117.1
	c0-1.5,2.9-2.6,4.6-2.6c13.3-0.6,33.1-1,53.6-1c57.6,0,80.1,32.5,80.1,73.9c0,54.3-38.3,77.6-85.3,77.6c-7.9,0-10.6-0.4-16.2-0.4v82
	c0,1.7-0.6,2.6-2.5,2.6h-31.8c-1.7,0-2.5-0.6-2.5-2.6L121.1,117.1L121.1,117.1z"/>
</svg>
