<?xml version="1.0" encoding="utf-8"?>
<!-- Generator: Adobe Illustrator 21.1.0, SVG Export Plug-In . SVG Version: 6.00 Build 0)  -->
<svg version="1.1" id="Layer_1" xmlns="http://www.w3.org/2000/svg" xmlns:xlink="http://www.w3.org/1999/xlink" x="0px" y="0px"
	 viewBox="0 0 1225.2 1424" style="enable-background:new 0 0 1225.2 1424;" xml:space="preserve">
<style type="text/css">
	.st0{fill:#336791;}
	.st1{fill:#FFFFFF;}
</style>
<path d="M1194.1,853.3c-7-24.3-25.4-41.2-49.2-45.2c-11.2-1.9-24.1-1.1-39.3,2.5c-26.5,6.2-46.2,8.6-60.5,9.1
	c54.2-104.3,98.3-223.3,123.6-335.3c41-181.1,19.1-263.6-6.5-300.9c-67.8-98.8-166.7-151.8-286-153.5
	C812.5,29,756.6,43.4,727.4,53.7c-27.1-5.5-56.3-8.5-86.9-9.1c-57.4-1-108.1,13.2-151.4,42.5c-24-9.3-62.5-22.3-107-30.6
	c-104.6-19.6-188.9-4.3-250.5,45.3C57,162,22.3,266.5,28.7,412.4c2,46.3,24.8,187.3,60.5,321c20.6,76.8,42.5,140.6,65.2,189.7
	c32.2,69.5,66.6,110.4,105.2,125.1c21.7,8.2,61,14,102.4-25.3c5.2,7.2,12.2,14.4,21.5,21.1c11.8,8.5,26.2,15.4,40.6,19.5
	c51.9,14.8,100.6,11.1,142-9.6c0.3,8.4,0.5,16.5,0.6,23.4c0.3,11.3,0.5,22.3,0.9,32.6c2.5,69.8,6.6,124.1,19,162.1
	c0.7,2.1,1.6,5.3,2.5,8.7c6.2,21.5,16.5,57.5,42.6,85.7c27.1,29.2,59.9,38.2,90,38.2c15.1,0,29.5-2.3,42.1-5.3
	c45-11,96-27.7,133-87.7c34.9-56.7,51.9-142.1,55-276.6c0.4-3.8,0.8-7.4,1.1-10.9l0.7-7.1l8.2,0.8l2.1,0.2
	c45.8,2.4,101.8-8.7,136.2-26.9C1127.5,976.4,1214.6,924,1194.1,853.3"/>
<path class="st0" d="M1115.8,867c-136.2,32-145.5-20.5-145.5-20.5c143.8-243.2,203.8-552,152-627.6
	C980.8,12.8,735.9,110.3,731.8,112.8l-1.3,0.3c-26.9-6.4-57-10.2-90.8-10.8c-61.6-1.1-108.3,18.4-143.8,49.1
	c0,0-436.9-205.2-416.6,258.1c4.3,98.6,123.9,745.9,266.5,550.4c52.1-71.5,102.5-131.9,102.5-131.9c25,19,55,28.6,86.4,25.1l2.4-2.4
	c-0.8,8.9-0.4,17.6,1,27.8c-36.7,46.8-25.9,55-99.4,72.3c-74.3,17.5-30.7,48.6-2.2,56.7c34.6,9.9,114.5,23.8,168.5-62.4l-2.2,9.8
	c14.4,13.2,24.5,85.5,22.8,151.1c-1.7,65.6-2.8,110.7,8.5,145.8c11.3,35.2,22.7,114.4,119.2,90.8c80.7-19.7,122.5-70.8,128.3-156
	c4.1-60.6,13.5-51.6,14.1-105.8l7.5-25.6c8.6-82.1,1.4-108.6,51.1-96.3l12.1,1.2c36.6,1.9,84.5-6.7,112.6-21.6
	C1139.6,906.4,1175.5,853,1115.8,867L1115.8,867"/>
<path class="st1" d="M521.4,453.6c-12.3-1.9-23.4-0.1-29,4.7c-3.2,2.7-4.1,5.9-4.4,8.1c-0.7,5.8,2.8,12.1,5,15.4
	c6.2,9.3,15.2,15.7,24.1,17.1c1.3,0.2,2.6,0.3,3.9,0.3c14.9,0,28.4-13.2,29.6-22.9C552,464.1,536.5,456,521.4,453.6 M927.9,454
	c-1.2-9.6-16.1-12.3-30.2-10c-14.1,2.2-27.8,9.5-26.7,19.1c0.9,7.4,12.7,20.2,26.7,20.2c1.2,0,2.4-0.1,3.6-0.3
	c9.3-1.5,16.2-8.2,19.4-12.1C925.5,464.9,928.4,458.3,927.9,454"/>
<path class="st1" d="M1161.1,863.4c-5.2-17.9-21.9-23.7-49.7-17.1c-82.4,19.4-111.9,6-121.6-2.2c64.1-111.3,116.8-245.8,145.2-371.4
	c13.5-59.5,20.9-114.7,21.5-159.7c0.7-49.4-6.7-85.7-21.9-107.9c-61.4-89.4-151.4-137.4-260.4-138.7c-74.9-1-138.3,20.9-150.5,27.1
	c-25.8-7.3-54-11.8-84.7-12.4c-56.3-1-104.9,14.3-145.1,45.6c-17.5-7.4-62.7-25.1-118-35.3c-95.6-17.5-171.5-4.2-225.7,39.5
	c-64.7,52.2-94.5,145.6-88.7,277.5c1.9,44.4,24.1,180.9,59.1,311.7c46.1,172.1,96.1,269.5,148.8,289.5c6.2,2.3,13.3,4,21.1,4
	c19.2,0,42.8-9.9,67.3-43.5c29.9-40.9,60.8-80.8,92.8-119.7c20.7,12.7,43.5,19.8,66.7,20.5c0,0.7,0.1,1.4,0.2,2.1
	c-4,5.4-7.9,11-11.8,16.6c-16.1,23.3-19.5,28.2-71.4,40.4c-14.8,3.5-54,12.7-54.6,44c-0.6,34.2,46.4,48.6,51.7,50.2
	c18.7,5.3,36.6,8,53.8,8c41.7,0,78.3-15.6,107.7-45.8c-0.9,122.1,3.6,242.4,16.4,279c10.5,30,36.2,103.3,117.5,103.3
	c11.9,0,25-1.6,39.5-5.1c84.8-20.7,121.6-63.5,135.9-157.7c7.6-50.4,20.7-170.6,26.9-235.1c13,4.6,29.7,6.7,47.8,6.7
	c37.7,0,81.2-9.1,108.4-23.6C1115.8,937.8,1171.1,898,1161.1,863.4L1161.1,863.4z M959.2,427.6c-0.3,19-2.6,36.3-5,54.4
	c-2.6,19.4-5.3,39.5-6,63.8c-0.7,23.7,1.9,48.3,4.4,72.2c5.1,48.1,10.3,97.7-9.9,146.6c-3.3-6.8-6.3-13.8-8.9-20.9
	c-2.5-6.9-7.9-18-15.5-33.4c-29.3-59.9-97.9-200.2-62.8-257.5C866,435.7,892.5,418.1,959.2,427.6L959.2,427.6z M878.4,105
	c97.7,2.5,174.9,44.1,229.6,123.8c42,61.1-4.2,339.3-138,579.3c-1.3-2-2.7-3.9-4.1-5.8l-1.7-2.4c34.6-65.1,27.8-129.5,21.8-186.6
	c-2.5-23.4-4.8-45.6-4.2-66.3c0.6-22,3.2-40.9,5.6-59.2c3-22.5,6.1-45.8,5.3-73.3c0.6-2.9,0.9-6.3,0.6-10.3
	c-2.2-26.3-28.5-105.2-82.3-176.5c-29.4-39-72.3-82.7-130.8-112.1C805.4,109.6,839.9,104,878.4,105L878.4,105z M331.9,945.6
	c-27,37-45.7,29.9-51.8,27.6c-40-15.2-86.3-111.5-127.2-264.3c-35.4-132.2-56.1-265.1-57.7-302.4c-5.2-117.9,19.9-200,74.5-244.2
	c88.8-71.8,234.9-28.8,293.6-7c-0.8,1-1.7,1.8-2.6,2.8c-96.3,110.9-94,300.4-93.8,312c0,4.5,0.3,10.8,0.8,19.5
	c1.7,31.9,4.7,91.2-3.5,158.4c-7.7,62.4,9.2,123.5,46.3,167.6c3.8,4.5,7.8,8.8,12,12.9C405.9,848.7,370.1,893.3,331.9,945.6
	L331.9,945.6z M434.8,789c-29.9-35.6-43.4-85-37.2-135.7c8.7-71,5.5-132.8,3.8-166c-0.2-4.6-0.5-8.7-0.6-11.9
	c14.1-14.2,79.3-54.1,125.8-41.9c21.2,5.5,34.1,22,39.5,50.4c27.8,146.7,3.7,207.9-15.7,257c-4,10.1-7.8,19.7-11,29.6l-2.5,7.7
	c-6.3,19.3-12.2,37.3-15.9,54.4C489.2,832.5,458.3,817,434.8,789L434.8,789z M439.7,986.9c-9.3-2.6-17.6-7.2-22.5-11
	c4.1-2.2,11.4-5.2,24-8.1c61.1-14.3,70.5-24.4,91.1-54.3c4.7-6.8,10.1-14.6,17.5-24l0,0c11-14.1,16.1-11.7,25.2-7.4
	c7.4,3.5,14.6,14.1,17.6,25.8c1.4,5.5,2.9,16-2.2,24.1C547.4,1000.6,484.7,999.7,439.7,986.9z M759.2,1326
	c-74.7,18.3-101.1-25.2-118.6-74.9c-11.2-32.1-16.8-176.7-12.9-336.4c0.1-2.1-0.2-4.2-0.7-6.1c-0.5-3.8-1.2-7.6-2.1-11.3
	c-5.8-23.2-20-42.7-37.1-50.7c-6.8-3.2-19.2-9.1-34.2-4.7c3.2-15,8.7-31.9,14.7-50.2l2.5-7.7c2.8-8.7,6.4-17.7,10.1-27.2
	c20.3-51.4,48.1-121.8,17.9-280.9c-11.3-59.6-49-88.7-106.2-81.9c-34.3,4-65.7,19.8-81.3,28.9c-3.4,1.9-6.4,3.8-9.3,5.6
	c4.4-60,20.9-172.2,82.6-243.2c38.9-44.7,90.6-66.8,153.7-65.6c124.2,2.3,203.9,75,248.9,135.6C926,307.4,947,360,955.4,388.4
	c-63-7.3-105.8,6.9-127.5,42.3c-47.2,77,25.8,226.4,61,298.2c6.4,13.2,12,24.5,13.7,29.4c11.4,31.6,26.2,52.7,37.1,68.1
	c3.3,4.7,6.5,9.3,9,13.3c-19.1,6.3-53.3,20.8-50.2,93.2c-2.5,36.3-20.4,206.4-29.5,266.6C856.9,1278.8,831.3,1308.4,759.2,1326
	L759.2,1326z M1071,919.1c-19.5,10.3-52.1,18.1-83.1,19.7c-34.2,1.8-51.7-4.4-55.8-8.2c-1.9-45.1,12.8-49.8,28.4-54.8
	c2.4-0.8,4.8-1.6,7.1-2.5c1.4,1.3,3,2.7,4.7,3.9c27.5,20.7,76.6,22.9,145.9,6.6l0.8-0.2C1109.7,893.7,1093.7,907.1,1071,919.1
	L1071,919.1z"/>
</svg>
